{
    "asset" : {
        "generator" : "Khronos glTF Blender I/O v1.8.19",
        "version" : "2.0"
    },
    "scene" : 0,
    "scenes" : [
        {
            "name" : "Scene",
            "nodes" : [
                0
            ]
        }
    ],
    "nodes" : [
        {
            "mesh" : 0,
            "name" : "Mesh_0",
            "rotation" : [
                -0.004546196665614843,
                0.011915530078113079,
                -0.024367863312363625,
                0.9996217489242554
            ],
            "translation" : [
                -0.011597242206335068,
                0.06892921030521393,
                0.0358688123524189
            ]
        }
    ],
    "materials" : [
        {
            "name" : "Material_0",
            "pbrMetallicRoughness" : {
                "baseColorTexture" : {
                    "index" : 0
                },
                "metallicFactor" : 0
            }
        }
    ],
    "meshes" : [
        {
            "name" : "Mesh_0",
            "primitives" : [
                {
                    "attributes" : {
                        "POSITION" : 0,
                        "NORMAL" : 1,
                        "TEXCOORD_0" : 2,
                        "COLOR_0" : 3
                    },
                    "indices" : 4,
                    "material" : 0
                }
            ]
        }
    ],
    "textures" : [
        {
            "sampler" : 0,
            "source" : 0
        }
    ],
    "images" : [
        {
            "mimeType" : "image/jpeg",
            "name" : "Image_0",
            "uri" : "Image_0.jpg"
        }
    ],
    "accessors" : [
        {
            "bufferView" : 0,
            "componentType" : 5126,
            "count" : 135878,
            "max" : [
                0.2511157989501953,
                0.17118528485298157,
                0.3053615689277649
            ],
            "min" : [
                -0.2511158585548401,
                -0.17118528485298157,
                -0.3053615689277649
            ],
            "type" : "VEC3"
        },
        {
            "bufferView" : 1,
            "componentType" : 5126,
            "count" : 135878,
            "type" : "VEC3"
        },
        {
            "bufferView" : 2,
            "componentType" : 5126,
            "count" : 135878,
            "type" : "VEC2"
        },
        {
            "bufferView" : 3,
            "componentType" : 5123,
            "count" : 135878,
            "normalized" : true,
            "type" : "VEC4"
        },
        {
            "bufferView" : 4,
            "componentType" : 5125,
            "count" : 139020,
            "type" : "SCALAR"
        }
    ],
    "bufferViews" : [
        {
            "buffer" : 0,
            "byteLength" : 1630536,
            "byteOffset" : 0
        },
        {
            "buffer" : 0,
            "byteLength" : 1630536,
            "byteOffset" : 1630536
        },
        {
            "buffer" : 0,
            "byteLength" : 1087024,
            "byteOffset" : 3261072
        },
        {
            "buffer" : 0,
            "byteLength" : 1087024,
            "byteOffset" : 4348096
        },
        {
            "buffer" : 0,
            "byteLength" : 556080,
            "byteOffset" : 5435120
        }
    ],
    "samplers" : [
        {
            "magFilter" : 9729,
            "minFilter" : 9987
        }
    ],
    "buffers" : [
        {
            "byteLength" : 5991200,
            "uri" : "bumbly.bin"
        }
    ]
}
